<svg xmlns="http://www.w3.org/2000/svg" viewBox="-2394 -8193 103.606 32.408">
  <path fill="white" d="M-771.539,106.386a4.452,4.452,0,0,1-2.172-.778,2.8,2.8,0,0,1-1.138-1.37,1.381,1.381,0,0,1,.656-1.569,1.373,1.373,0,0,1,1.021-.122c.306.084.46.3.721.445a2,2,0,0,0,1.736-.124,4.242,4.242,0,0,0,1.545-1.487,8.873,8.873,0,0,0,1.012-2.186,11.373,11.373,0,0,0,.55-2.321,6.286,6.286,0,0,1-1.412.734,5.3,5.3,0,0,1-5.18-.914c-1.736-1.449-1.966-3.876-1.721-5.979a27.032,27.032,0,0,1,1.8-6.575c.358-.924.753-1.831,1.158-2.736.318-.71.582-1.643,1.451-1.824a1.378,1.378,0,0,1,1.614,1.593c-.14.829-.383,1.65-.573,2.469a39.351,39.351,0,0,0-1.239,7.108,8.772,8.772,0,0,0,.067,1.718,1.65,1.65,0,0,0,.435,1c.771.713,1.911-.278,2.453-.828a12.994,12.994,0,0,0,2.672-5.024c.648-1.831,1.239-3.667,2.038-5.445.285-.635.588-1.275,1.382-1.342a1.381,1.381,0,0,1,1.459,1.6c-.229,1.361-.526,2.712-.792,4.065-.369,1.868-.62,3.751-.811,5.647-.291,2.894-.461,5.926-1.552,8.654-1.115,2.788-3.5,5.6-6.709,5.6Q-771.3,106.407-771.539,106.386Zm62.083-.336a4.018,4.018,0,0,1-1.89-1.449,1.376,1.376,0,0,1,.365-1.949,1.37,1.37,0,0,1,1.124-.155c.354.107.536.382.831.563a1.78,1.78,0,0,0,2.1-.407c1.408-1.219,2.012-3.32,2.383-5.075.359-1.7.526-3.454.733-5.183a43.075,43.075,0,0,1,1.166-6.229,28.023,28.023,0,0,1,1.294-3.95,16.227,16.227,0,0,1,3.2-4.866,11.074,11.074,0,0,1,4.909-2.975A10.237,10.237,0,0,1-690.558,74a2.4,2.4,0,0,1,1.9.449,1.364,1.364,0,0,1-.141,1.975,4.143,4.143,0,0,1-1.843.467,8.261,8.261,0,0,0-4.767,2.916,14.66,14.66,0,0,0-2.645,5.318,44.212,44.212,0,0,0-.878,4.505c.368-.013.737-.027,1.105-.046l.548-.03.284-.019c.171-.012.122.015.191-.125a2.64,2.64,0,0,0,.1-.562q.057-.281.127-.559.136-.537.321-1.059a11.637,11.637,0,0,1,2.083-3.642,7.815,7.815,0,0,1,4.234-2.731,5.047,5.047,0,0,1,5.974,3.493,5.867,5.867,0,0,1-1.623,5.128c-1.826,1.977-4.583,2.693-7.165,3.007a3.16,3.16,0,0,0,.316,1.115,2.486,2.486,0,0,0,.247.34.311.311,0,0,0,.041.039,3.1,3.1,0,0,0,1.754.444,5.557,5.557,0,0,0,1.514-.327,3.816,3.816,0,0,0,.955-.4,1.368,1.368,0,0,1,1.949.314c.983,1.453-1.264,2.672-2.3,3.167a6.455,6.455,0,0,1-5.2.3,5.274,5.274,0,0,1-2.938-3.12,7.679,7.679,0,0,1-.394-1.48c-.007-.041-.006-.185-.033-.213a1.328,1.328,0,0,0-.229,0l-.336-.009q-.343-.011-.686-.025c-.24-.01-.481-.022-.722-.035a1.8,1.8,0,0,0-.563-.031c-.12.06-.147.585-.176.74-.046.249-.095.5-.143.745-.738,3.76-1.546,8.171-4.612,10.8a5.714,5.714,0,0,1-3.643,1.465A4.306,4.306,0,0,1-709.456,106.051Zm17.131-17.27c0,.014-.008.028-.012.042a7.956,7.956,0,0,0,2.958-1.475,4.569,4.569,0,0,0,1.463-1.991c.24-.813-.615-1.112-1.268-.938a3.7,3.7,0,0,0-1.94,1.657,10.329,10.329,0,0,0-1.2,2.7Zm4.4-3.348c0-.014.007-.027.012-.041l.006-.018A.525.525,0,0,0-687.924,85.433Zm-36.047,12.636a5.084,5.084,0,0,1-2.478-.934,4.489,4.489,0,0,1-1.332-1.523,4.4,4.4,0,0,1-.283-.653l-.085-.269c-.023-.091-.044-.174-.063-.247a.932.932,0,0,1-.031-.16l-.013-.1c-.006-.051-.01-.078-.01-.078a1.338,1.338,0,0,1,1.176-1.494,1.379,1.379,0,0,1,1.439.8l.031.073.039.09a.435.435,0,0,0,.048.094l.118.175c.053.076.118.153.188.234a1.707,1.707,0,0,0,.58.4,2.034,2.034,0,0,0,.9.14,2.137,2.137,0,0,0,1.038-.341,1.288,1.288,0,0,0,.337-.32.826.826,0,0,0,.138-.328,1.778,1.778,0,0,0-.221-1.05,6.561,6.561,0,0,0-1.1-1.543c-.125-.131-.248-.26-.381-.39l-.238-.238-.115-.116-.158-.169c-.212-.229-.374-.431-.553-.663a7.189,7.189,0,0,1-.478-.731,6.315,6.315,0,0,1-.676-1.684,5.478,5.478,0,0,1-.112-1.878,5.151,5.151,0,0,1,.558-1.79,5.167,5.167,0,0,1,1.122-1.414,5.242,5.242,0,0,1,1.451-.91,5.123,5.123,0,0,1,1.561-.363,5.175,5.175,0,0,1,1.445.1,5.257,5.257,0,0,1,1.18.419,5.423,5.423,0,0,1,1.508,1.1,6.03,6.03,0,0,1,.7.858c.137.206.2.319.2.319a1.31,1.31,0,0,1-.524,1.809,1.4,1.4,0,0,1-1.569-.161l-.074-.065-.191-.163a4.96,4.96,0,0,0-.539-.391,2.947,2.947,0,0,0-.814-.352,1.834,1.834,0,0,0-.889,0,1.577,1.577,0,0,0-.755.49,1.425,1.425,0,0,0-.319.882,2.132,2.132,0,0,0,.37,1.169c.066.11.148.22.23.332s.192.237.275.323l.062.068.114.113.223.22c.179.171.35.358.523.543A9.645,9.645,0,0,1-718.628,91a6.022,6.022,0,0,1,.461,1.777,4.781,4.781,0,0,1-.217,1.993,4.535,4.535,0,0,1-1.039,1.716,4.987,4.987,0,0,1-1.48,1.067,5.62,5.62,0,0,1-2.445.551A6.024,6.024,0,0,1-723.971,98.069Zm-7.6-.184a1.36,1.36,0,0,1-.914-1.449l.007-.053.151-1.257c.094-.808.221-1.967.331-3.342.049-.688.1-1.428.121-2.2s.016-1.573-.039-2.356a10.063,10.063,0,0,0-.145-1.129,4.439,4.439,0,0,0-.255-.907.818.818,0,0,0-.05-.1.964.964,0,0,0-.141.086,3.555,3.555,0,0,0-.316.256c-.112.111-.229.227-.349.362a11.782,11.782,0,0,0-1.349,1.937,19.008,19.008,0,0,0-1.056,2.176c-.3.723-.566,1.423-.8,2.076-.249.7-.461,1.349-.639,1.92-.1.417-.212.832-.329,1.244s-.249.834-.386,1.25c0,.005,0,.013,0,.013l-.008.031c-.007.028-.021.054-.03.081-.058.173-.112.344-.174.52a1.361,1.361,0,0,1-1.734.832,1.361,1.361,0,0,1-.9-1.445l.005-.046.222-1.838c.07-.617.138-1.235.192-1.85s.109-1.227.142-1.835.068-1.211.072-1.8,0-1.178-.042-1.736a9.087,9.087,0,0,0-.225-1.545,2.834,2.834,0,0,0-.241-.688l-.022.011a1.923,1.923,0,0,0-.354.27,6.6,6.6,0,0,0-.883,1.1,20.909,20.909,0,0,0-1.6,3.047c-.478,1.1-.91,2.25-1.294,3.421-.193.585-.377,1.176-.544,1.77s-.338,1.2-.466,1.772h0l-.026.105a1.674,1.674,0,0,1-2.028,1.222,1.678,1.678,0,0,1-1.242-1.938l.011-.057h0l.008-.04,1.262-6.636.63-3.367.611-3.358,0-.022a1.354,1.354,0,0,1,1.575-1.091,1.354,1.354,0,0,1,1.077,1.046,5.666,5.666,0,0,1,1.121-.876,4.565,4.565,0,0,1,1.675-.594,4.845,4.845,0,0,1,.486-.038l.245,0,.122,0,.174.018.118.015.033,0,.08.014.159.032c.1.023.221.052.3.08l.25.089a3.919,3.919,0,0,1,1.619,1.205,5.021,5.021,0,0,1,.761,1.367c.064-.1.128-.2.2-.3a7.061,7.061,0,0,1,1.273-1.44,5.357,5.357,0,0,1,.985-.647,4.04,4.04,0,0,1,1.317-.41,4.135,4.135,0,0,1,.739-.031l.093,0,.162.017.089.011.044.006.074.011c.081.015.161.032.241.05s.164.04.236.062l.189.067a2.792,2.792,0,0,1,.37.159,2.943,2.943,0,0,1,.35.2,3.029,3.029,0,0,1,.32.228,4.181,4.181,0,0,1,.93,1.046,5.188,5.188,0,0,1,.5,1.022,9.943,9.943,0,0,1,.5,3.378,20.8,20.8,0,0,1-.19,2.791c-.107.862-.246,1.66-.4,2.388s-.3,1.388-.452,1.968-.292,1.082-.416,1.494-.23.733-.3.954-.118.346-.118.346a1.359,1.359,0,0,1-1.288.923A1.359,1.359,0,0,1-731.573,97.885Zm-.7-12.839a.369.369,0,0,0,.062.009c.023,0,0,0-.013,0l-.045-.005h0Zm-8.089,0,.043.006h.022l-.026,0-.053-.006Zm8.107-.008h0Zm-8.261-.059a.174.174,0,0,0-.043-.049h-.005C-740.569,84.932-740.547,84.956-740.512,84.982Zm8.048-.034c.007,0,.016.014.028.024h0a.216.216,0,0,0-.045-.049S-732.478,84.932-732.464,84.947Zm18.641,12.828c-2.55-.754-3.641-3.512-3.649-5.955a12.349,12.349,0,0,1,1.675-6.012c1.131-2.022,2.893-4.1,5.195-4.782a4.157,4.157,0,0,1,4.865,1.7,4.359,4.359,0,0,1,.426-.92,1.369,1.369,0,0,1,1.456-.5,1.365,1.365,0,0,1,.987,1.31,2.866,2.866,0,0,1-.178.787c-.1.343-.194.7-.311,1.036-.392,1.3-.779,2.593-1.062,3.924-.252,1.183-.412,2.381-.6,3.574a27.816,27.816,0,0,0-.449,3.729c-.015.729.326,1.7-.517,2.107-1.087.523-2.07-.976-2.433-1.792a6.043,6.043,0,0,1-4.158,1.976A4.379,4.379,0,0,1-713.823,97.775Zm1.484-3.729a3.1,3.1,0,0,0,1.714-1.068,9.592,9.592,0,0,0,1.618-2.223,10.645,10.645,0,0,0,.491-1.033c.084-.213-.02-.175-.186-.315a1.341,1.341,0,0,1-.313-.376,1.657,1.657,0,0,1,0-1.417c.086-.27.161-.545.233-.821a7.48,7.48,0,0,0,.218-1.178,1.324,1.324,0,0,0-.123-.931c-.448-.543-1.409.3-1.742.617a8.178,8.178,0,0,0-1.364,1.751,10.1,10.1,0,0,0-1.328,3.513,6.353,6.353,0,0,0-.012,2.362,2.242,2.242,0,0,0,.352.871.757.757,0,0,0,.263.218c.049.028.2.021.025.025l.172,0A.051.051,0,0,0-712.339,94.046Zm8.9-9.338Zm-54.945,13.067c-2.55-.754-3.641-3.512-3.649-5.955a12.349,12.349,0,0,1,1.675-6.012c1.131-2.022,2.893-4.1,5.195-4.782a4.157,4.157,0,0,1,4.865,1.7,4.359,4.359,0,0,1,.426-.92,1.369,1.369,0,0,1,1.456-.5,1.365,1.365,0,0,1,.987,1.31,2.866,2.866,0,0,1-.178.787c-.1.343-.194.7-.311,1.036-.392,1.3-.779,2.593-1.062,3.924-.252,1.183-.412,2.381-.6,3.574a27.806,27.806,0,0,0-.449,3.729c-.015.729.326,1.7-.518,2.107-1.087.523-2.07-.976-2.433-1.792a6.043,6.043,0,0,1-4.158,1.976A4.379,4.379,0,0,1-758.385,97.775Zm1.484-3.729a3.1,3.1,0,0,0,1.714-1.068,9.594,9.594,0,0,0,1.618-2.223,10.658,10.658,0,0,0,.491-1.033c.084-.213-.02-.175-.186-.315a1.341,1.341,0,0,1-.313-.376,1.656,1.656,0,0,1,0-1.417c.086-.27.161-.545.233-.821a7.48,7.48,0,0,0,.218-1.178,1.324,1.324,0,0,0-.123-.931c-.448-.543-1.409.3-1.742.617a8.178,8.178,0,0,0-1.364,1.751,10.1,10.1,0,0,0-1.328,3.513,6.353,6.353,0,0,0-.012,2.362,2.242,2.242,0,0,0,.352.871.757.757,0,0,0,.263.218c.049.028.2.021.025.025l.172,0A.051.051,0,0,0-756.9,94.046Zm8.9-9.338Zm63.273,11.873a6.52,6.52,0,0,1,.069-1.943c.074-.875.177-1.748.294-2.618a56.737,56.737,0,0,1,1.747-8.319c.325-1.113.561-2.393,1.823-2.778a2.123,2.123,0,0,1,2.725,1.938,9.582,9.582,0,0,1,3.227-1.61,2.552,2.552,0,0,1,1.57-.12,1.358,1.358,0,0,1,.835.976c-.03-.169-.056-.31.007.036.057.318.036.2.007.042a1.378,1.378,0,0,1-1.145,1.525,6.632,6.632,0,0,0-2.27,1.069,11.042,11.042,0,0,0-3.281,4.271A23.192,23.192,0,0,0-680.775,94q-.19.852-.321,1.714a2.659,2.659,0,0,1-.62,1.753,1.768,1.768,0,0,1-1.227.484A1.81,1.81,0,0,1-684.728,96.581Zm-72.149-2.654.03.01S-756.886,93.927-756.878,93.927Zm0,0Zm68.951-.226ZM-709,90.732c.038-.071.077-.143-.011.023l-.031.054Zm-44.562,0c.038-.071.076-.143-.011.023l-.031.054Z" transform="translate(-1617.999 -8266.999)"/>
</svg>
