<svg fill="#fff" xmlns="http://www.w3.org/2000/svg" viewBox="-5833 -6976 207.709 73.24">
  <g transform="translate(-6092.909 -7216.893)">
    <path d="M565.5,340.2c.5.5-.6-.5,0,0Z" transform="translate(-108.583 -35.286)"/>
    <path d="M555.768,339.453a4.028,4.028,0,0,0-.387,5.931,4.256,4.256,0,0,0,5.737,0,3.968,3.968,0,0,0,.387-5.738A4.33,4.33,0,0,0,555.768,339.453Z" transform="translate(-104.589 -34.668)"/>
    <path d="M542.881,338.4a4.365,4.365,0,0,0-4.384,4,3.892,3.892,0,0,0,4.061,4.062,4.4,4.4,0,0,0,4.255-4.062A3.844,3.844,0,0,0,542.881,338.4Z" transform="translate(-98.986 -34.646)"/>
    <path d="M347.722,263.042h0a4.3,4.3,0,0,0,5.931,0,3.978,3.978,0,0,0,.322-5.609,4.342,4.342,0,0,0-5.8-.193,3.988,3.988,0,0,0-.451,5.8C347.658,262.913,347.529,262.849,347.722,263.042Z" transform="translate(-30.829 -5.448)"/>
    <path d="M323.6,278.978a12.8,12.8,0,0,0-10.96-2.192,11.1,11.1,0,0,0-6.962,5.157,11.914,11.914,0,0,0-.58,11.024c1.676,3.675,5.157,6.189,8.832,7.672-1.87,2.063-4.577,2.385-7.221,2.063-2.579-.322-5.093-.9-7.672-.967a13.2,13.2,0,0,0-8.059,2.256,32.992,32.992,0,0,0-6,6c-1.483,1.676-2.9,3.417-4.513,4.964a18.4,18.4,0,0,1-7.285,4.577,19.723,19.723,0,0,1-7.994.838c-.9-.064-1.87-.387-2.708-.387a2.577,2.577,0,0,0-2.45,1.741,2.615,2.615,0,0,0,.838,2.837,7.4,7.4,0,0,0,2.643,1.1,23.9,23.9,0,0,0,7.349,1.1,24.2,24.2,0,0,0,15.666-6.124c1.676-1.483,3.352-3.094,4.964-4.706,1.1-1.1,2.128-2.192,3.223-3.159a4.536,4.536,0,0,1,2.837-1.483c2.321-.258,4.771.516,7.027.967a21.561,21.561,0,0,0,8.381.065c5.673-1.289,9.8-5.48,12.056-10.637a37.2,37.2,0,0,0,2.45-8.7,31.309,31.309,0,0,0,.451-3.546,11.735,11.735,0,0,0-.064-2.127A12.6,12.6,0,0,0,323.6,278.978Zm-5.286,9.477A27.833,27.833,0,0,1,316.957,294c-1.741-1.031-3.739-2.708-4.061-4.835a3,3,0,0,1,2.321-3.61A2.765,2.765,0,0,1,318.311,288.454Z" transform="translate(0 -12.615)"/>
    <path d="M365.1,293.2c.1.5,0-.6,0,0Z" transform="translate(-37.377 -18.586)"/>
    <path d="M560.831,277.313c-1.934-.129-3.095,1.354-3.352,3.094-.709,4.642-3.675,9.348-8.381,10.573a12.962,12.962,0,0,1-5.222.129H544a3.714,3.714,0,0,1-3.61-4.319,28.6,28.6,0,0,1,1.16-8.381c1.547-5.867,3.868-11.411,5.48-17.213a42.106,42.106,0,0,0,1.547-8.51,16.628,16.628,0,0,0-1.1-8.123c-.838-1.87-2.45-4-4.771-3.417a3.086,3.086,0,0,0-2.256,2.256,3.619,3.619,0,0,0,.58,2.708c1.1,1.805.516,4.448.129,6.318a49.248,49.248,0,0,1-2.514,7.929c-2.192,5.351-4.706,10.573-6.382,16.181-1.547,5.158-2.643,11.089-.451,16.246a13.1,13.1,0,0,0,11.217,7.543,18.444,18.444,0,0,0,20.437-15.666,19.841,19.841,0,0,0,.258-3.417,4.626,4.626,0,0,0-.451-2.45A3.117,3.117,0,0,0,560.831,277.313Z" transform="translate(-96.178 -0.056)"/>
    <path d="M582.1,303.5c0,1.1-.1-1.2,0,0Z" transform="translate(-114.482 -22.246)"/>
    <path d="M522,282.8Z" transform="translate(-93.127 -14.891)"/>
    <path d="M466.895,267.909a11.4,11.4,0,0,0-9.283-3.546,12.446,12.446,0,0,0-8.316,4c-2.772,2.837-4.513,6.511-6.189,10.057a72.994,72.994,0,0,1-4,8.123c-.451.709-3.03,4.319-4.771,4.191-1.676-.129-2.063-2.579-2.127-3.03,0-.387-.065-.774-.065-1.16a30.9,30.9,0,0,1,.451-5.222c.258-1.483.516-2.643.709-3.481.193-.774.258-1.16.258-1.16l.064-.322a3,3,0,0,0-2-3.61,3.545,3.545,0,0,0-1.418-.129,3.064,3.064,0,0,0-3.223,2.45s-.064.129-.193.451-.322.774-.516,1.354c-.258.58-.516,1.289-.838,2.063s-.709,1.676-1.16,2.579a30.835,30.835,0,0,1-1.483,2.9c-.322.645-.709,1.225-1.1,1.87-2.321,3.481-3.739,4-4.706,3.868-.838-.129-1.1-3.03-1.16-3.868,0-.9,0-1.87.065-2.772.129-2,.322-3.739.451-4.964.065-.58.129-1.1.193-1.418a2.7,2.7,0,0,0,.065-.451v-.387a3.174,3.174,0,0,0-1.354-2.772,2.789,2.789,0,0,0-1.612-.838,3.087,3.087,0,0,0-3.61,2.385s-.064.129-.193.451-.322.774-.516,1.354c-.258.58-.516,1.289-.838,2.063s-.774,1.676-1.16,2.579c-.451.967-.967,1.934-1.483,2.9a27.288,27.288,0,0,1-1.547,2.579c-1.87,2.708-3.223,3.223-4.255,3.094-.58-.129-.838-1.1-1.031-2.063-.064-.451-.064-.9-.129-1.354a24.525,24.525,0,0,1,.064-3.095c.129-2,.322-3.739.516-4.964.064-.58.129-1.1.193-1.418a2.7,2.7,0,0,0,.064-.451v-.387a3.225,3.225,0,0,0-1.031-2.579,2.746,2.746,0,0,0-1.289-.967,3.111,3.111,0,0,0-4.061,1.741l-.064.064s-.129.322-.387.9-.58,1.418-1.032,2.45a46.147,46.147,0,0,1-4.448,8.059,20.149,20.149,0,0,1-3.675,4.062,6.977,6.977,0,0,1-4.062,1.8h-.258c-2.45-.451-2.772-3.094-2.772-4.126v-.387h0a12.941,12.941,0,0,1,.322-2.708,59.127,59.127,0,0,1,1.805-7.414c1.547-4.964,3.481-9.8,5.415-14.634,1.869-4.642,3.932-9.477,3.094-14.634a10.322,10.322,0,0,0-2.579-5.48c-1.354-1.418-3.288-2.321-4.964-.9a3.208,3.208,0,0,0-1.1,2.643,5.05,5.05,0,0,0,1.225,2.321c1.1,1.483.645,3.8.193,5.415a36.593,36.593,0,0,1-2.966,6.7L373.8,265.46a89.693,89.693,0,0,0-5.415,13.989c-1.289,4.448-2.256,9.606-.58,14.054a.225.225,0,0,0,.064.129h0A10.436,10.436,0,0,0,372,298.725a9.391,9.391,0,0,1,.838.58,13.617,13.617,0,0,0,1.354.709,12.322,12.322,0,0,0,6.06,1.032,13.744,13.744,0,0,0,5.351-1.676,18.82,18.82,0,0,0,5.738-4.9c.065.064.065.129.129.258a10.026,10.026,0,0,0,2.643,3.159,9.472,9.472,0,0,0,3.868,1.741,9.7,9.7,0,0,0,1.87.193H401.2c.193,0,.387-.065.58-.065a11.227,11.227,0,0,0,3.675-1.225,12.822,12.822,0,0,0,2.708-2A10.265,10.265,0,0,0,409,295.7a9.3,9.3,0,0,0,5.931,3.933,9.7,9.7,0,0,0,1.87.193h1.354c.193,0,.387-.065.58-.065a11.227,11.227,0,0,0,3.675-1.225,13.427,13.427,0,0,0,4-3.417,13.084,13.084,0,0,0,.838,1.16,9.162,9.162,0,0,0,3.159,2.256,9.5,9.5,0,0,0,1.805.516,10.2,10.2,0,0,0,1.676.193h.193a12.1,12.1,0,0,0,5.028-.9c.065,0,.065-.065.129-.065a1.927,1.927,0,0,0,.516-.258c.129-.065.322-.193.451-.258.064-.064.129-.064.193-.129a15.971,15.971,0,0,0,4.255-3.8,9.469,9.469,0,0,0,7.349,5.8,11.316,11.316,0,0,0,10.379-3.675,29.3,29.3,0,0,0,7.22-16.117C470.247,275.71,469.731,271.2,466.895,267.909Zm-7.156,15.537A22.665,22.665,0,0,1,458,287.508c-.9,1.741-2.256,4.062-4.448,4.062-2.321,0-2.127-3.095-1.869-4.706.322-1.805,1.16-3.933,2.772-4.964a3.414,3.414,0,0,0,1.741-2.45,3.254,3.254,0,0,0-1.483-2.965c.838-1.161,2-2.708,3.546-2.837a2.065,2.065,0,0,1,2.256,1.741C461.221,277.966,460.512,281,459.739,283.446Z" transform="translate(-38.021 0)"/>
  </g>
</svg>
